<?xml version="1.0" encoding="UTF-8" standalone="no"?>
<!DOCTYPE svg PUBLIC "-//W3C//DTD SVG 1.1//EN"
 "http://www.w3.org/Graphics/SVG/1.1/DTD/svg11.dtd">
<!-- Generated by graphviz version 2.43.0 (0)
 -->
<!-- Title: controller_fsm Pages: 1 -->
<svg width="473pt" height="1236pt"
 viewBox="0.00 0.00 472.50 1235.60" xmlns="http://www.w3.org/2000/svg" xmlns:xlink="http://www.w3.org/1999/xlink">
<g id="graph0" class="graph" transform="scale(1 1) rotate(0) translate(4 1231.6)">
<title>controller_fsm</title>
<polygon fill="white" stroke="transparent" points="-4,4 -4,-1231.6 468.5,-1231.6 468.5,4 -4,4"/>
<!-- RESET -->
<g id="node1" class="node">
<title>RESET</title>
<ellipse fill="black" stroke="black" cx="268.5" cy="-1225.8" rx="1.8" ry="1.8"/>
</g>
<!-- IDLE -->
<g id="node2" class="node">
<title>IDLE</title>
<polygon fill="none" stroke="black" points="295.5,-1188 241.5,-1188 241.5,-1152 295.5,-1152 295.5,-1188"/>
<text text-anchor="middle" x="268.5" y="-1166.3" font-family="Times,serif" font-size="14.00">IDLE</text>
</g>
<!-- RESET&#45;&gt;IDLE -->
<g id="edge1" class="edge">
<title>RESET&#45;&gt;IDLE</title>
<path fill="none" stroke="black" d="M268.5,-1223.87C268.5,-1220.64 268.5,-1209.55 268.5,-1198.35"/>
<polygon fill="black" stroke="black" points="272,-1198.26 268.5,-1188.26 265,-1198.26 272,-1198.26"/>
</g>
<!-- IDLE&#45;&gt;IDLE -->
<g id="edge4" class="edge">
<title>IDLE&#45;&gt;IDLE</title>
<path fill="none" stroke="black" d="M295.74,-1180.12C305.52,-1180.33 313.5,-1176.96 313.5,-1170 313.5,-1165.76 310.54,-1162.85 306.01,-1161.27"/>
<polygon fill="black" stroke="black" points="306.12,-1157.76 295.74,-1159.88 305.18,-1164.69 306.12,-1157.76"/>
</g>
<!-- RD_START -->
<g id="node3" class="node">
<title>RD_START</title>
<polygon fill="none" stroke="black" points="258,-1116 181,-1116 181,-1080 258,-1080 258,-1116"/>
<text text-anchor="middle" x="219.5" y="-1094.3" font-family="Times,serif" font-size="14.00">RD_START</text>
</g>
<!-- IDLE&#45;&gt;RD_START -->
<g id="edge2" class="edge">
<title>IDLE&#45;&gt;RD_START</title>
<path fill="none" stroke="black" d="M256.39,-1151.7C250.63,-1143.47 243.64,-1133.48 237.29,-1124.42"/>
<polygon fill="black" stroke="black" points="240.08,-1122.29 231.47,-1116.1 234.34,-1126.3 240.08,-1122.29"/>
</g>
<!-- WR_START -->
<g id="node19" class="node">
<title>WR_START</title>
<polygon fill="none" stroke="black" points="357.5,-1116 277.5,-1116 277.5,-1080 357.5,-1080 357.5,-1116"/>
<text text-anchor="middle" x="317.5" y="-1094.3" font-family="Times,serif" font-size="14.00">WR_START</text>
</g>
<!-- IDLE&#45;&gt;WR_START -->
<g id="edge3" class="edge">
<title>IDLE&#45;&gt;WR_START</title>
<path fill="none" stroke="black" d="M280.61,-1151.7C286.37,-1143.47 293.36,-1133.48 299.71,-1124.42"/>
<polygon fill="black" stroke="black" points="302.66,-1126.3 305.53,-1116.1 296.92,-1122.29 302.66,-1126.3"/>
</g>
<!-- RD_EVICT_WORD0 -->
<g id="node4" class="node">
<title>RD_EVICT_WORD0</title>
<polygon fill="none" stroke="black" points="191,-1044 54,-1044 54,-1008 191,-1008 191,-1044"/>
<text text-anchor="middle" x="122.5" y="-1022.3" font-family="Times,serif" font-size="14.00">RD_EVICT_WORD0</text>
</g>
<!-- RD_START&#45;&gt;RD_EVICT_WORD0 -->
<g id="edge5" class="edge">
<title>RD_START&#45;&gt;RD_EVICT_WORD0</title>
<path fill="none" stroke="black" d="M195.52,-1079.7C183.19,-1070.8 167.98,-1059.82 154.65,-1050.2"/>
<polygon fill="black" stroke="black" points="156.36,-1047.12 146.2,-1044.1 152.26,-1052.79 156.36,-1047.12"/>
</g>
<!-- RD_LOAD_WORD0 -->
<g id="node12" class="node">
<title>RD_LOAD_WORD0</title>
<polygon fill="none" stroke="black" points="189,-468 56,-468 56,-432 189,-432 189,-468"/>
<text text-anchor="middle" x="122.5" y="-446.3" font-family="Times,serif" font-size="14.00">RD_LOAD_WORD0</text>
</g>
<!-- RD_START&#45;&gt;RD_LOAD_WORD0 -->
<g id="edge6" class="edge">
<title>RD_START&#45;&gt;RD_LOAD_WORD0</title>
<path fill="none" stroke="black" d="M219.5,-1079.95C219.5,-1053.29 219.5,-1000.11 219.5,-955 219.5,-955 219.5,-955 219.5,-593 219.5,-551.91 217.87,-537.79 194.5,-504 186.33,-492.19 174.66,-481.99 163.08,-473.78"/>
<polygon fill="black" stroke="black" points="164.98,-470.84 154.73,-468.16 161.07,-476.65 164.98,-470.84"/>
</g>
<!-- RD_EVICT_WORD1 -->
<g id="node5" class="node">
<title>RD_EVICT_WORD1</title>
<polygon fill="none" stroke="black" points="191,-972 54,-972 54,-936 191,-936 191,-972"/>
<text text-anchor="middle" x="122.5" y="-950.3" font-family="Times,serif" font-size="14.00">RD_EVICT_WORD1</text>
</g>
<!-- RD_EVICT_WORD0&#45;&gt;RD_EVICT_WORD1 -->
<g id="edge7" class="edge">
<title>RD_EVICT_WORD0&#45;&gt;RD_EVICT_WORD1</title>
<path fill="none" stroke="black" d="M122.5,-1007.7C122.5,-999.98 122.5,-990.71 122.5,-982.11"/>
<polygon fill="black" stroke="black" points="126,-982.1 122.5,-972.1 119,-982.1 126,-982.1"/>
</g>
<!-- RD_EVICT_WORD2 -->
<g id="node6" class="node">
<title>RD_EVICT_WORD2</title>
<polygon fill="none" stroke="black" points="191,-900 54,-900 54,-864 191,-864 191,-900"/>
<text text-anchor="middle" x="122.5" y="-878.3" font-family="Times,serif" font-size="14.00">RD_EVICT_WORD2</text>
</g>
<!-- RD_EVICT_WORD1&#45;&gt;RD_EVICT_WORD2 -->
<g id="edge8" class="edge">
<title>RD_EVICT_WORD1&#45;&gt;RD_EVICT_WORD2</title>
<path fill="none" stroke="black" d="M122.5,-935.7C122.5,-927.98 122.5,-918.71 122.5,-910.11"/>
<polygon fill="black" stroke="black" points="126,-910.1 122.5,-900.1 119,-910.1 126,-910.1"/>
</g>
<!-- RD_EVICT_WORD3 -->
<g id="node7" class="node">
<title>RD_EVICT_WORD3</title>
<polygon fill="none" stroke="black" points="191,-828 54,-828 54,-792 191,-792 191,-828"/>
<text text-anchor="middle" x="122.5" y="-806.3" font-family="Times,serif" font-size="14.00">RD_EVICT_WORD3</text>
</g>
<!-- RD_EVICT_WORD2&#45;&gt;RD_EVICT_WORD3 -->
<g id="edge9" class="edge">
<title>RD_EVICT_WORD2&#45;&gt;RD_EVICT_WORD3</title>
<path fill="none" stroke="black" d="M122.5,-863.7C122.5,-855.98 122.5,-846.71 122.5,-838.11"/>
<polygon fill="black" stroke="black" points="126,-838.1 122.5,-828.1 119,-838.1 126,-838.1"/>
</g>
<!-- RD_EVICT_WAIT0 -->
<g id="node8" class="node">
<title>RD_EVICT_WAIT0</title>
<polygon fill="none" stroke="black" points="186.5,-756 58.5,-756 58.5,-720 186.5,-720 186.5,-756"/>
<text text-anchor="middle" x="122.5" y="-734.3" font-family="Times,serif" font-size="14.00">RD_EVICT_WAIT0</text>
</g>
<!-- RD_EVICT_WORD3&#45;&gt;RD_EVICT_WAIT0 -->
<g id="edge10" class="edge">
<title>RD_EVICT_WORD3&#45;&gt;RD_EVICT_WAIT0</title>
<path fill="none" stroke="black" d="M122.5,-791.7C122.5,-783.98 122.5,-774.71 122.5,-766.11"/>
<polygon fill="black" stroke="black" points="126,-766.1 122.5,-756.1 119,-766.1 126,-766.1"/>
</g>
<!-- RD_EVICT_WAIT1 -->
<g id="node9" class="node">
<title>RD_EVICT_WAIT1</title>
<polygon fill="none" stroke="black" points="186.5,-684 58.5,-684 58.5,-648 186.5,-648 186.5,-684"/>
<text text-anchor="middle" x="122.5" y="-662.3" font-family="Times,serif" font-size="14.00">RD_EVICT_WAIT1</text>
</g>
<!-- RD_EVICT_WAIT0&#45;&gt;RD_EVICT_WAIT1 -->
<g id="edge11" class="edge">
<title>RD_EVICT_WAIT0&#45;&gt;RD_EVICT_WAIT1</title>
<path fill="none" stroke="black" d="M122.5,-719.7C122.5,-711.98 122.5,-702.71 122.5,-694.11"/>
<polygon fill="black" stroke="black" points="126,-694.1 122.5,-684.1 119,-694.1 126,-694.1"/>
</g>
<!-- RD_EVICT_WAIT2 -->
<g id="node10" class="node">
<title>RD_EVICT_WAIT2</title>
<polygon fill="none" stroke="black" points="186.5,-612 58.5,-612 58.5,-576 186.5,-576 186.5,-612"/>
<text text-anchor="middle" x="122.5" y="-590.3" font-family="Times,serif" font-size="14.00">RD_EVICT_WAIT2</text>
</g>
<!-- RD_EVICT_WAIT1&#45;&gt;RD_EVICT_WAIT2 -->
<g id="edge12" class="edge">
<title>RD_EVICT_WAIT1&#45;&gt;RD_EVICT_WAIT2</title>
<path fill="none" stroke="black" d="M122.5,-647.7C122.5,-639.98 122.5,-630.71 122.5,-622.11"/>
<polygon fill="black" stroke="black" points="126,-622.1 122.5,-612.1 119,-622.1 126,-622.1"/>
</g>
<!-- RD_EVICT_DONE -->
<g id="node11" class="node">
<title>RD_EVICT_DONE</title>
<polygon fill="none" stroke="black" points="185.5,-540 59.5,-540 59.5,-504 185.5,-504 185.5,-540"/>
<text text-anchor="middle" x="122.5" y="-518.3" font-family="Times,serif" font-size="14.00">RD_EVICT_DONE</text>
</g>
<!-- RD_EVICT_WAIT2&#45;&gt;RD_EVICT_DONE -->
<g id="edge13" class="edge">
<title>RD_EVICT_WAIT2&#45;&gt;RD_EVICT_DONE</title>
<path fill="none" stroke="black" d="M122.5,-575.7C122.5,-567.98 122.5,-558.71 122.5,-550.11"/>
<polygon fill="black" stroke="black" points="126,-550.1 122.5,-540.1 119,-550.1 126,-550.1"/>
</g>
<!-- RD_EVICT_DONE&#45;&gt;RD_LOAD_WORD0 -->
<g id="edge14" class="edge">
<title>RD_EVICT_DONE&#45;&gt;RD_LOAD_WORD0</title>
<path fill="none" stroke="black" d="M122.5,-503.7C122.5,-495.98 122.5,-486.71 122.5,-478.11"/>
<polygon fill="black" stroke="black" points="126,-478.1 122.5,-468.1 119,-478.1 126,-478.1"/>
</g>
<!-- RD_LOAD_WORD1 -->
<g id="node13" class="node">
<title>RD_LOAD_WORD1</title>
<polygon fill="none" stroke="black" points="188,-396 55,-396 55,-360 188,-360 188,-396"/>
<text text-anchor="middle" x="121.5" y="-374.3" font-family="Times,serif" font-size="14.00">RD_LOAD_WORD1</text>
</g>
<!-- RD_LOAD_WORD0&#45;&gt;RD_LOAD_WORD1 -->
<g id="edge15" class="edge">
<title>RD_LOAD_WORD0&#45;&gt;RD_LOAD_WORD1</title>
<path fill="none" stroke="black" d="M122.25,-431.7C122.14,-423.98 122.01,-414.71 121.89,-406.11"/>
<polygon fill="black" stroke="black" points="125.39,-406.05 121.74,-396.1 118.39,-406.15 125.39,-406.05"/>
</g>
<!-- RD_LOAD_WORD2 -->
<g id="node14" class="node">
<title>RD_LOAD_WORD2</title>
<polygon fill="none" stroke="black" points="188,-324 55,-324 55,-288 188,-288 188,-324"/>
<text text-anchor="middle" x="121.5" y="-302.3" font-family="Times,serif" font-size="14.00">RD_LOAD_WORD2</text>
</g>
<!-- RD_LOAD_WORD1&#45;&gt;RD_LOAD_WORD2 -->
<g id="edge16" class="edge">
<title>RD_LOAD_WORD1&#45;&gt;RD_LOAD_WORD2</title>
<path fill="none" stroke="black" d="M121.5,-359.7C121.5,-351.98 121.5,-342.71 121.5,-334.11"/>
<polygon fill="black" stroke="black" points="125,-334.1 121.5,-324.1 118,-334.1 125,-334.1"/>
</g>
<!-- RD_LOAD_WORD3 -->
<g id="node15" class="node">
<title>RD_LOAD_WORD3</title>
<polygon fill="none" stroke="black" points="188,-252 55,-252 55,-216 188,-216 188,-252"/>
<text text-anchor="middle" x="121.5" y="-230.3" font-family="Times,serif" font-size="14.00">RD_LOAD_WORD3</text>
</g>
<!-- RD_LOAD_WORD2&#45;&gt;RD_LOAD_WORD3 -->
<g id="edge17" class="edge">
<title>RD_LOAD_WORD2&#45;&gt;RD_LOAD_WORD3</title>
<path fill="none" stroke="black" d="M121.5,-287.7C121.5,-279.98 121.5,-270.71 121.5,-262.11"/>
<polygon fill="black" stroke="black" points="125,-262.1 121.5,-252.1 118,-262.1 125,-262.1"/>
</g>
<!-- RD_LOAD_WAIT0 -->
<g id="node16" class="node">
<title>RD_LOAD_WAIT0</title>
<polygon fill="none" stroke="black" points="181.5,-180 57.5,-180 57.5,-144 181.5,-144 181.5,-180"/>
<text text-anchor="middle" x="119.5" y="-158.3" font-family="Times,serif" font-size="14.00">RD_LOAD_WAIT0</text>
</g>
<!-- RD_LOAD_WORD3&#45;&gt;RD_LOAD_WAIT0 -->
<g id="edge18" class="edge">
<title>RD_LOAD_WORD3&#45;&gt;RD_LOAD_WAIT0</title>
<path fill="none" stroke="black" d="M121.01,-215.7C120.79,-207.98 120.52,-198.71 120.27,-190.11"/>
<polygon fill="black" stroke="black" points="123.77,-190 119.99,-180.1 116.78,-190.2 123.77,-190"/>
</g>
<!-- RD_LOAD_DONE -->
<g id="node17" class="node">
<title>RD_LOAD_DONE</title>
<polygon fill="none" stroke="black" points="176.5,-108 54.5,-108 54.5,-72 176.5,-72 176.5,-108"/>
<text text-anchor="middle" x="115.5" y="-86.3" font-family="Times,serif" font-size="14.00">RD_LOAD_DONE</text>
</g>
<!-- RD_LOAD_WAIT0&#45;&gt;RD_LOAD_DONE -->
<g id="edge19" class="edge">
<title>RD_LOAD_WAIT0&#45;&gt;RD_LOAD_DONE</title>
<path fill="none" stroke="black" d="M118.51,-143.7C118.07,-135.98 117.54,-126.71 117.05,-118.11"/>
<polygon fill="black" stroke="black" points="120.54,-117.89 116.48,-108.1 113.55,-118.29 120.54,-117.89"/>
</g>
<!-- RD_FROM_CACHE -->
<g id="node18" class="node">
<title>RD_FROM_CACHE</title>
<polygon fill="none" stroke="black" points="135,-36 0,-36 0,0 135,0 135,-36"/>
<text text-anchor="middle" x="67.5" y="-14.3" font-family="Times,serif" font-size="14.00">RD_FROM_CACHE</text>
</g>
<!-- RD_LOAD_DONE&#45;&gt;RD_FROM_CACHE -->
<g id="edge20" class="edge">
<title>RD_LOAD_DONE&#45;&gt;RD_FROM_CACHE</title>
<path fill="none" stroke="black" d="M103.63,-71.7C98,-63.47 91.15,-53.48 84.93,-44.42"/>
<polygon fill="black" stroke="black" points="87.77,-42.37 79.23,-36.1 82,-46.33 87.77,-42.37"/>
</g>
<!-- RD_FROM_CACHE&#45;&gt;IDLE -->
<g id="edge21" class="edge">
<title>RD_FROM_CACHE&#45;&gt;IDLE</title>
<path fill="none" stroke="black" d="M59,-36.01C46.73,-62.18 25.5,-114.21 25.5,-161 25.5,-1027 25.5,-1027 25.5,-1027 25.5,-1121.12 163.06,-1153.99 231.18,-1164.5"/>
<polygon fill="black" stroke="black" points="230.7,-1167.97 241.1,-1165.95 231.71,-1161.04 230.7,-1167.97"/>
</g>
<!-- WR_EVICT_WORD0 -->
<g id="node20" class="node">
<title>WR_EVICT_WORD0</title>
<polygon fill="none" stroke="black" points="387.5,-1044 247.5,-1044 247.5,-1008 387.5,-1008 387.5,-1044"/>
<text text-anchor="middle" x="317.5" y="-1022.3" font-family="Times,serif" font-size="14.00">WR_EVICT_WORD0</text>
</g>
<!-- WR_START&#45;&gt;WR_EVICT_WORD0 -->
<g id="edge22" class="edge">
<title>WR_START&#45;&gt;WR_EVICT_WORD0</title>
<path fill="none" stroke="black" d="M317.5,-1079.7C317.5,-1071.98 317.5,-1062.71 317.5,-1054.11"/>
<polygon fill="black" stroke="black" points="321,-1054.1 317.5,-1044.1 314,-1054.1 321,-1054.1"/>
</g>
<!-- WR_LOAD_WORD0 -->
<g id="node28" class="node">
<title>WR_LOAD_WORD0</title>
<polygon fill="none" stroke="black" points="425.5,-468 289.5,-468 289.5,-432 425.5,-432 425.5,-468"/>
<text text-anchor="middle" x="357.5" y="-446.3" font-family="Times,serif" font-size="14.00">WR_LOAD_WORD0</text>
</g>
<!-- WR_START&#45;&gt;WR_LOAD_WORD0 -->
<g id="edge23" class="edge">
<title>WR_START&#45;&gt;WR_LOAD_WORD0</title>
<path fill="none" stroke="black" d="M354.93,-1079.86C370.01,-1071.16 386.22,-1059.18 396.5,-1044 419.17,-1010.51 415.5,-995.45 415.5,-955 415.5,-955 415.5,-955 415.5,-593 415.5,-552.46 412.09,-540.99 395.5,-504 391.12,-494.24 384.8,-484.46 378.56,-476.01"/>
<polygon fill="black" stroke="black" points="381.31,-473.84 372.43,-468.05 375.76,-478.11 381.31,-473.84"/>
</g>
<!-- WR_EVICT_WORD1 -->
<g id="node21" class="node">
<title>WR_EVICT_WORD1</title>
<polygon fill="none" stroke="black" points="387.5,-972 247.5,-972 247.5,-936 387.5,-936 387.5,-972"/>
<text text-anchor="middle" x="317.5" y="-950.3" font-family="Times,serif" font-size="14.00">WR_EVICT_WORD1</text>
</g>
<!-- WR_EVICT_WORD0&#45;&gt;WR_EVICT_WORD1 -->
<g id="edge24" class="edge">
<title>WR_EVICT_WORD0&#45;&gt;WR_EVICT_WORD1</title>
<path fill="none" stroke="black" d="M317.5,-1007.7C317.5,-999.98 317.5,-990.71 317.5,-982.11"/>
<polygon fill="black" stroke="black" points="321,-982.1 317.5,-972.1 314,-982.1 321,-982.1"/>
</g>
<!-- WR_EVICT_WORD2 -->
<g id="node22" class="node">
<title>WR_EVICT_WORD2</title>
<polygon fill="none" stroke="black" points="387.5,-900 247.5,-900 247.5,-864 387.5,-864 387.5,-900"/>
<text text-anchor="middle" x="317.5" y="-878.3" font-family="Times,serif" font-size="14.00">WR_EVICT_WORD2</text>
</g>
<!-- WR_EVICT_WORD1&#45;&gt;WR_EVICT_WORD2 -->
<g id="edge25" class="edge">
<title>WR_EVICT_WORD1&#45;&gt;WR_EVICT_WORD2</title>
<path fill="none" stroke="black" d="M317.5,-935.7C317.5,-927.98 317.5,-918.71 317.5,-910.11"/>
<polygon fill="black" stroke="black" points="321,-910.1 317.5,-900.1 314,-910.1 321,-910.1"/>
</g>
<!-- WR_EVICT_WORD3 -->
<g id="node23" class="node">
<title>WR_EVICT_WORD3</title>
<polygon fill="none" stroke="black" points="387.5,-828 247.5,-828 247.5,-792 387.5,-792 387.5,-828"/>
<text text-anchor="middle" x="317.5" y="-806.3" font-family="Times,serif" font-size="14.00">WR_EVICT_WORD3</text>
</g>
<!-- WR_EVICT_WORD2&#45;&gt;WR_EVICT_WORD3 -->
<g id="edge26" class="edge">
<title>WR_EVICT_WORD2&#45;&gt;WR_EVICT_WORD3</title>
<path fill="none" stroke="black" d="M317.5,-863.7C317.5,-855.98 317.5,-846.71 317.5,-838.11"/>
<polygon fill="black" stroke="black" points="321,-838.1 317.5,-828.1 314,-838.1 321,-838.1"/>
</g>
<!-- WR_EVICT_WAIT0 -->
<g id="node24" class="node">
<title>WR_EVICT_WAIT0</title>
<polygon fill="none" stroke="black" points="384,-756 253,-756 253,-720 384,-720 384,-756"/>
<text text-anchor="middle" x="318.5" y="-734.3" font-family="Times,serif" font-size="14.00">WR_EVICT_WAIT0</text>
</g>
<!-- WR_EVICT_WORD3&#45;&gt;WR_EVICT_WAIT0 -->
<g id="edge27" class="edge">
<title>WR_EVICT_WORD3&#45;&gt;WR_EVICT_WAIT0</title>
<path fill="none" stroke="black" d="M317.75,-791.7C317.86,-783.98 317.99,-774.71 318.11,-766.11"/>
<polygon fill="black" stroke="black" points="321.61,-766.15 318.26,-756.1 314.61,-766.05 321.61,-766.15"/>
</g>
<!-- WR_EVICT_WAIT1 -->
<g id="node25" class="node">
<title>WR_EVICT_WAIT1</title>
<polygon fill="none" stroke="black" points="385,-684 254,-684 254,-648 385,-648 385,-684"/>
<text text-anchor="middle" x="319.5" y="-662.3" font-family="Times,serif" font-size="14.00">WR_EVICT_WAIT1</text>
</g>
<!-- WR_EVICT_WAIT0&#45;&gt;WR_EVICT_WAIT1 -->
<g id="edge28" class="edge">
<title>WR_EVICT_WAIT0&#45;&gt;WR_EVICT_WAIT1</title>
<path fill="none" stroke="black" d="M318.75,-719.7C318.86,-711.98 318.99,-702.71 319.11,-694.11"/>
<polygon fill="black" stroke="black" points="322.61,-694.15 319.26,-684.1 315.61,-694.05 322.61,-694.15"/>
</g>
<!-- WR_EVICT_WAIT2 -->
<g id="node26" class="node">
<title>WR_EVICT_WAIT2</title>
<polygon fill="none" stroke="black" points="387,-612 256,-612 256,-576 387,-576 387,-612"/>
<text text-anchor="middle" x="321.5" y="-590.3" font-family="Times,serif" font-size="14.00">WR_EVICT_WAIT2</text>
</g>
<!-- WR_EVICT_WAIT1&#45;&gt;WR_EVICT_WAIT2 -->
<g id="edge29" class="edge">
<title>WR_EVICT_WAIT1&#45;&gt;WR_EVICT_WAIT2</title>
<path fill="none" stroke="black" d="M319.99,-647.7C320.21,-639.98 320.48,-630.71 320.73,-622.11"/>
<polygon fill="black" stroke="black" points="324.22,-622.2 321.01,-612.1 317.23,-622 324.22,-622.2"/>
</g>
<!-- WR_EVICT_DONE -->
<g id="node27" class="node">
<title>WR_EVICT_DONE</title>
<polygon fill="none" stroke="black" points="387,-540 258,-540 258,-504 387,-504 387,-540"/>
<text text-anchor="middle" x="322.5" y="-518.3" font-family="Times,serif" font-size="14.00">WR_EVICT_DONE</text>
</g>
<!-- WR_EVICT_WAIT2&#45;&gt;WR_EVICT_DONE -->
<g id="edge30" class="edge">
<title>WR_EVICT_WAIT2&#45;&gt;WR_EVICT_DONE</title>
<path fill="none" stroke="black" d="M321.75,-575.7C321.86,-567.98 321.99,-558.71 322.11,-550.11"/>
<polygon fill="black" stroke="black" points="325.61,-550.15 322.26,-540.1 318.61,-550.05 325.61,-550.15"/>
</g>
<!-- WR_EVICT_DONE&#45;&gt;WR_LOAD_WORD0 -->
<g id="edge31" class="edge">
<title>WR_EVICT_DONE&#45;&gt;WR_LOAD_WORD0</title>
<path fill="none" stroke="black" d="M331.15,-503.7C335.14,-495.73 339.95,-486.1 344.37,-477.26"/>
<polygon fill="black" stroke="black" points="347.61,-478.61 348.95,-468.1 341.35,-475.48 347.61,-478.61"/>
</g>
<!-- WR_LOAD_WORD1 -->
<g id="node29" class="node">
<title>WR_LOAD_WORD1</title>
<polygon fill="none" stroke="black" points="425.5,-396 289.5,-396 289.5,-360 425.5,-360 425.5,-396"/>
<text text-anchor="middle" x="357.5" y="-374.3" font-family="Times,serif" font-size="14.00">WR_LOAD_WORD1</text>
</g>
<!-- WR_LOAD_WORD0&#45;&gt;WR_LOAD_WORD1 -->
<g id="edge32" class="edge">
<title>WR_LOAD_WORD0&#45;&gt;WR_LOAD_WORD1</title>
<path fill="none" stroke="black" d="M357.5,-431.7C357.5,-423.98 357.5,-414.71 357.5,-406.11"/>
<polygon fill="black" stroke="black" points="361,-406.1 357.5,-396.1 354,-406.1 361,-406.1"/>
</g>
<!-- WR_LOAD_WORD2 -->
<g id="node30" class="node">
<title>WR_LOAD_WORD2</title>
<polygon fill="none" stroke="black" points="425.5,-324 289.5,-324 289.5,-288 425.5,-288 425.5,-324"/>
<text text-anchor="middle" x="357.5" y="-302.3" font-family="Times,serif" font-size="14.00">WR_LOAD_WORD2</text>
</g>
<!-- WR_LOAD_WORD1&#45;&gt;WR_LOAD_WORD2 -->
<g id="edge33" class="edge">
<title>WR_LOAD_WORD1&#45;&gt;WR_LOAD_WORD2</title>
<path fill="none" stroke="black" d="M357.5,-359.7C357.5,-351.98 357.5,-342.71 357.5,-334.11"/>
<polygon fill="black" stroke="black" points="361,-334.1 357.5,-324.1 354,-334.1 361,-334.1"/>
</g>
<!-- WR_LOAD_WORD3 -->
<g id="node31" class="node">
<title>WR_LOAD_WORD3</title>
<polygon fill="none" stroke="black" points="425.5,-252 289.5,-252 289.5,-216 425.5,-216 425.5,-252"/>
<text text-anchor="middle" x="357.5" y="-230.3" font-family="Times,serif" font-size="14.00">WR_LOAD_WORD3</text>
</g>
<!-- WR_LOAD_WORD2&#45;&gt;WR_LOAD_WORD3 -->
<g id="edge34" class="edge">
<title>WR_LOAD_WORD2&#45;&gt;WR_LOAD_WORD3</title>
<path fill="none" stroke="black" d="M357.5,-287.7C357.5,-279.98 357.5,-270.71 357.5,-262.11"/>
<polygon fill="black" stroke="black" points="361,-262.1 357.5,-252.1 354,-262.1 361,-262.1"/>
</g>
<!-- WR_LOAD_WAIT0 -->
<g id="node32" class="node">
<title>WR_LOAD_WAIT0</title>
<polygon fill="none" stroke="black" points="423,-180 296,-180 296,-144 423,-144 423,-180"/>
<text text-anchor="middle" x="359.5" y="-158.3" font-family="Times,serif" font-size="14.00">WR_LOAD_WAIT0</text>
</g>
<!-- WR_LOAD_WORD3&#45;&gt;WR_LOAD_WAIT0 -->
<g id="edge35" class="edge">
<title>WR_LOAD_WORD3&#45;&gt;WR_LOAD_WAIT0</title>
<path fill="none" stroke="black" d="M357.99,-215.7C358.21,-207.98 358.48,-198.71 358.73,-190.11"/>
<polygon fill="black" stroke="black" points="362.22,-190.2 359.01,-180.1 355.23,-190 362.22,-190.2"/>
</g>
<!-- WR_LOAD_DONE -->
<g id="node33" class="node">
<title>WR_LOAD_DONE</title>
<polygon fill="none" stroke="black" points="423,-108 298,-108 298,-72 423,-72 423,-108"/>
<text text-anchor="middle" x="360.5" y="-86.3" font-family="Times,serif" font-size="14.00">WR_LOAD_DONE</text>
</g>
<!-- WR_LOAD_WAIT0&#45;&gt;WR_LOAD_DONE -->
<g id="edge36" class="edge">
<title>WR_LOAD_WAIT0&#45;&gt;WR_LOAD_DONE</title>
<path fill="none" stroke="black" d="M359.75,-143.7C359.86,-135.98 359.99,-126.71 360.11,-118.11"/>
<polygon fill="black" stroke="black" points="363.61,-118.15 360.26,-108.1 356.61,-118.05 363.61,-118.15"/>
</g>
<!-- WR_TO_CACHE -->
<g id="node34" class="node">
<title>WR_TO_CACHE</title>
<polygon fill="none" stroke="black" points="464.5,-36 352.5,-36 352.5,0 464.5,0 464.5,-36"/>
<text text-anchor="middle" x="408.5" y="-14.3" font-family="Times,serif" font-size="14.00">WR_TO_CACHE</text>
</g>
<!-- WR_LOAD_DONE&#45;&gt;WR_TO_CACHE -->
<g id="edge37" class="edge">
<title>WR_LOAD_DONE&#45;&gt;WR_TO_CACHE</title>
<path fill="none" stroke="black" d="M372.37,-71.7C378,-63.47 384.85,-53.48 391.07,-44.42"/>
<polygon fill="black" stroke="black" points="394,-46.33 396.77,-36.1 388.23,-42.37 394,-46.33"/>
</g>
<!-- WR_TO_CACHE&#45;&gt;IDLE -->
<g id="edge38" class="edge">
<title>WR_TO_CACHE&#45;&gt;IDLE</title>
<path fill="none" stroke="black" d="M417.82,-36.37C431,-62.59 453.5,-114.19 453.5,-161 453.5,-1027 453.5,-1027 453.5,-1027 453.5,-1100.95 359.34,-1141.66 305.38,-1158.92"/>
<polygon fill="black" stroke="black" points="304.32,-1155.58 295.8,-1161.87 306.38,-1162.27 304.32,-1155.58"/>
</g>
</g>
</svg>
