<?xml version="1.0" encoding="UTF-8" standalone="no"?>
<!DOCTYPE svg PUBLIC "-//W3C//DTD SVG 1.1//EN"
 "http://www.w3.org/Graphics/SVG/1.1/DTD/svg11.dtd">
<!-- Generated by graphviz version 2.43.0 (0)
 -->
<!-- Title: controller_fsm Pages: 1 -->
<svg width="1220pt" height="1756pt"
 viewBox="0.00 0.00 1219.50 1756.00" xmlns="http://www.w3.org/2000/svg" xmlns:xlink="http://www.w3.org/1999/xlink">
<g id="graph0" class="graph" transform="scale(1 1) rotate(0) translate(4 1752)">
<title>controller_fsm</title>
<polygon fill="white" stroke="transparent" points="-4,4 -4,-1752 1215.5,-1752 1215.5,4 -4,4"/>
<!-- RESET -->
<g id="node1" class="node">
<title>RESET</title>
<ellipse fill="black" stroke="black" cx="512.5" cy="-1625" rx="1.8" ry="1.8"/>
</g>
<!-- IDLE -->
<g id="node3" class="node">
<title>IDLE</title>
<polygon fill="none" stroke="black" points="485,-1428.5 485,-1464.5 540,-1464.5 540,-1428.5 485,-1428.5"/>
<text text-anchor="middle" x="512.5" y="-1451.8" font-family="Times,serif" font-size="14.00">IDLE</text>
<polyline fill="none" stroke="black" points="485,-1446.5 540,-1446.5 "/>
<text text-anchor="middle" x="512.5" y="-1433.8" font-family="Times,serif" font-size="14.00">Stall=0</text>
</g>
<!-- RESET&#45;&gt;IDLE -->
<g id="edge1" class="edge">
<title>RESET&#45;&gt;IDLE</title>
<path fill="none" stroke="black" d="M512.5,-1622.87C512.5,-1611.78 512.5,-1521.61 512.5,-1475.07"/>
<polygon fill="black" stroke="black" points="516,-1474.79 512.5,-1464.79 509,-1474.79 516,-1474.79"/>
</g>
<!-- DETAILS -->
<g id="node2" class="node">
<title>DETAILS</title>
<text text-anchor="start" x="575" y="-1733.8" font-family="Times,serif" font-size="14.00"> &#160;&#160;&#160;&#160;&#160;&#160;&#160;</text>
<text text-anchor="start" x="612" y="-1733.8" font-family="Times,serif" font-weight="bold" font-size="14.00">signal defaults</text>
<text text-anchor="start" x="607" y="-1719.8" font-family="Times,serif" font-size="14.00"> &#160;&#160;&#160;&#160;&#160;&#160;&#160;Stall=1</text>
<text text-anchor="start" x="605.5" y="-1705.8" font-family="Times,serif" font-size="14.00"> &#160;&#160;&#160;&#160;&#160;&#160;&#160;Done=0</text>
<text text-anchor="start" x="590.5" y="-1691.8" font-family="Times,serif" font-size="14.00"> &#160;&#160;&#160;&#160;&#160;&#160;&#160;CacheHit=0</text>
<text text-anchor="start" x="558.5" y="-1677.8" font-family="Times,serif" font-size="14.00"> &#160;&#160;&#160;&#160;&#160;&#160;&#160;DataOut=cache_dout</text>
<text text-anchor="start" x="591.5" y="-1663.8" font-family="Times,serif" font-size="14.00"> &#160;&#160;&#160;&#160;&#160;&#160;&#160;cache_en=0</text>
<text text-anchor="start" x="581" y="-1649.8" font-family="Times,serif" font-size="14.00"> &#160;&#160;&#160;&#160;&#160;&#160;&#160;cache_comp=0</text>
<text text-anchor="start" x="590.5" y="-1635.8" font-family="Times,serif" font-size="14.00"> &#160;&#160;&#160;&#160;&#160;&#160;&#160;cache_wr=0</text>
<text text-anchor="start" x="572.5" y="-1621.8" font-family="Times,serif" font-size="14.00"> &#160;&#160;&#160;&#160;&#160;&#160;&#160;cache_valid_in=1</text>
<text text-anchor="start" x="550.5" y="-1607.8" font-family="Times,serif" font-size="14.00"> &#160;&#160;&#160;&#160;&#160;&#160;&#160;cache_offset=Addr[2:0]</text>
<text text-anchor="start" x="547" y="-1593.8" font-family="Times,serif" font-size="14.00"> &#160;&#160;&#160;&#160;&#160;&#160;&#160;cache_index=Addr[10:3]</text>
<text text-anchor="start" x="540" y="-1579.8" font-family="Times,serif" font-size="14.00"> &#160;&#160;&#160;&#160;&#160;&#160;&#160;cache_tag_in=Addr[15:11]</text>
<text text-anchor="start" x="557.5" y="-1565.8" font-family="Times,serif" font-size="14.00"> &#160;&#160;&#160;&#160;&#160;&#160;&#160;mem_addr=16&#39;h0000</text>
<text text-anchor="start" x="593.5" y="-1551.8" font-family="Times,serif" font-size="14.00"> &#160;&#160;&#160;&#160;&#160;&#160;&#160;mem_wr=0</text>
<text text-anchor="start" x="595" y="-1537.8" font-family="Times,serif" font-size="14.00"> &#160;&#160;&#160;&#160;&#160;&#160;&#160;mem_rd=0</text>
<text text-anchor="start" x="556" y="-1523.8" font-family="Times,serif" font-size="14.00"> &#160;&#160;&#160;&#160;&#160;&#160;&#160;mem_din=cache_dout</text>
<text text-anchor="start" x="556" y="-1509.8" font-family="Times,serif" font-size="14.00"> &#160;&#160;&#160;&#160;&#160;&#160;&#160;cache_din=mem_dout</text>
</g>
<!-- IDLE&#45;&gt;IDLE -->
<g id="edge4" class="edge">
<title>IDLE&#45;&gt;IDLE</title>
<path fill="none" stroke="black" d="M540.04,-1453.24C549.94,-1453.39 558,-1451.14 558,-1446.5 558,-1443.6 554.85,-1441.63 550.07,-1440.6"/>
<polygon fill="black" stroke="black" points="550.3,-1437.11 540.04,-1439.76 549.71,-1444.09 550.3,-1437.11"/>
</g>
<!-- RD_START -->
<g id="node4" class="node">
<title>RD_START</title>
<polygon fill="none" stroke="black" points="268.5,-1286.5 268.5,-1361.5 504.5,-1361.5 504.5,-1286.5 268.5,-1286.5"/>
<text text-anchor="middle" x="386.5" y="-1350.3" font-family="Times,serif" font-size="14.00">RD_START</text>
<polyline fill="none" stroke="black" points="268.5,-1346.5 504.5,-1346.5 "/>
<text text-anchor="middle" x="386.5" y="-1335.3" font-family="Times,serif" font-size="14.00">cache_en=1</text>
<text text-anchor="middle" x="386.5" y="-1320.3" font-family="Times,serif" font-size="14.00">cache_comp=1</text>
<text text-anchor="middle" x="386.5" y="-1305.3" font-family="Times,serif" font-size="14.00">CacheHit=(cache_hit&amp;line_valid)</text>
<text text-anchor="middle" x="386.5" y="-1290.3" font-family="Times,serif" font-size="14.00">Done=(cache_hit&amp;line_valid)</text>
</g>
<!-- IDLE&#45;&gt;RD_START -->
<g id="edge2" class="edge">
<title>IDLE&#45;&gt;RD_START</title>
<path fill="none" stroke="black" d="M484.71,-1441.99C449.85,-1436.96 393.1,-1426.43 380.5,-1410 372.25,-1399.24 370.68,-1385.29 372.06,-1371.82"/>
<polygon fill="black" stroke="black" points="375.56,-1372.08 373.62,-1361.66 368.64,-1371.01 375.56,-1372.08"/>
<text text-anchor="middle" x="390.5" y="-1398.8" font-family="Times,serif" font-size="14.00">Rd</text>
</g>
<!-- WR_START -->
<g id="node16" class="node">
<title>WR_START</title>
<polygon fill="none" stroke="black" points="526.5,-1271.5 526.5,-1376.5 762.5,-1376.5 762.5,-1271.5 526.5,-1271.5"/>
<text text-anchor="middle" x="644.5" y="-1365.3" font-family="Times,serif" font-size="14.00">RD_START</text>
<polyline fill="none" stroke="black" points="526.5,-1361.5 762.5,-1361.5 "/>
<text text-anchor="middle" x="644.5" y="-1350.3" font-family="Times,serif" font-size="14.00">cache_en=1</text>
<text text-anchor="middle" x="644.5" y="-1335.3" font-family="Times,serif" font-size="14.00">cache_wr=1</text>
<text text-anchor="middle" x="644.5" y="-1320.3" font-family="Times,serif" font-size="14.00">cache_comp=1</text>
<text text-anchor="middle" x="644.5" y="-1305.3" font-family="Times,serif" font-size="14.00">cache_din=DataIn</text>
<text text-anchor="middle" x="644.5" y="-1290.3" font-family="Times,serif" font-size="14.00">CacheHit=(cache_hit&amp;line_valid)</text>
<text text-anchor="middle" x="644.5" y="-1275.3" font-family="Times,serif" font-size="14.00">Done=(cache_hit&amp;line_valid)</text>
</g>
<!-- IDLE&#45;&gt;WR_START -->
<g id="edge3" class="edge">
<title>IDLE&#45;&gt;WR_START</title>
<path fill="none" stroke="black" d="M540.03,-1434.53C553.13,-1428.5 568.51,-1420.16 580.5,-1410 589.22,-1402.61 597.46,-1393.82 604.95,-1384.75"/>
<polygon fill="black" stroke="black" points="607.84,-1386.74 611.33,-1376.73 602.36,-1382.38 607.84,-1386.74"/>
<text text-anchor="middle" x="606.5" y="-1398.8" font-family="Times,serif" font-size="14.00">Wr</text>
</g>
<!-- RD_START&#45;&gt;IDLE -->
<g id="edge5" class="edge">
<title>RD_START&#45;&gt;IDLE</title>
<path fill="none" stroke="black" d="M395.57,-1361.8C401.24,-1378.33 410.1,-1397 423.5,-1410 437.58,-1423.65 457.56,-1432.25 475.02,-1437.57"/>
<polygon fill="black" stroke="black" points="474.38,-1441.02 484.95,-1440.33 476.25,-1434.28 474.38,-1441.02"/>
<text text-anchor="middle" x="502" y="-1398.8" font-family="Times,serif" font-size="14.00">cache_hit &amp; line_valid</text>
</g>
<!-- RD_EVICT_WORD0 -->
<g id="node5" class="node">
<title>RD_EVICT_WORD0</title>
<polygon fill="none" stroke="black" points="53,-1129.5 53,-1219.5 390,-1219.5 390,-1129.5 53,-1129.5"/>
<text text-anchor="middle" x="221.5" y="-1208.3" font-family="Times,serif" font-size="14.00">RD_EVICT_WORD0</text>
<polyline fill="none" stroke="black" points="53,-1204.5 390,-1204.5 "/>
<text text-anchor="middle" x="221.5" y="-1193.3" font-family="Times,serif" font-size="14.00">cache_en=1</text>
<text text-anchor="middle" x="221.5" y="-1178.3" font-family="Times,serif" font-size="14.00">cache_tag_in=cache_tag_out</text>
<text text-anchor="middle" x="221.5" y="-1163.3" font-family="Times,serif" font-size="14.00">cache_offset=000</text>
<text text-anchor="middle" x="221.5" y="-1148.3" font-family="Times,serif" font-size="14.00">mem_addr={cache_tag_out, cache_index, 000}</text>
<text text-anchor="middle" x="221.5" y="-1133.3" font-family="Times,serif" font-size="14.00">mem_wr=1</text>
</g>
<!-- RD_START&#45;&gt;RD_EVICT_WORD0 -->
<g id="edge7" class="edge">
<title>RD_START&#45;&gt;RD_EVICT_WORD0</title>
<path fill="none" stroke="black" d="M268.22,-1302.97C214.16,-1291.17 158.58,-1274.34 142.5,-1253 136.13,-1244.55 136.16,-1236.15 140.13,-1228.16"/>
<polygon fill="black" stroke="black" points="143.16,-1229.93 145.86,-1219.68 137.36,-1226.01 143.16,-1229.93"/>
<text text-anchor="middle" x="273.5" y="-1241.8" font-family="Times,serif" font-size="14.00">!(cache_hit &amp; line_valid) &amp; line_dirty</text>
</g>
<!-- RD_LOAD_WORD0 -->
<g id="node9" class="node">
<title>RD_LOAD_WORD0</title>
<polygon fill="none" stroke="black" points="112.5,-648.5 112.5,-693.5 330.5,-693.5 330.5,-648.5 112.5,-648.5"/>
<text text-anchor="middle" x="221.5" y="-682.3" font-family="Times,serif" font-size="14.00">RD_LOAD_WORD0</text>
<polyline fill="none" stroke="black" points="112.5,-678.5 330.5,-678.5 "/>
<text text-anchor="middle" x="221.5" y="-667.3" font-family="Times,serif" font-size="14.00">mem_rd=1</text>
<text text-anchor="middle" x="221.5" y="-652.3" font-family="Times,serif" font-size="14.00">mem_addr={Addr[15:3], 000}</text>
</g>
<!-- RD_START&#45;&gt;RD_LOAD_WORD0 -->
<g id="edge6" class="edge">
<title>RD_START&#45;&gt;RD_LOAD_WORD0</title>
<path fill="none" stroke="black" d="M398.96,-1286.5C407.95,-1256.94 418.5,-1214.02 418.5,-1175.5 418.5,-1175.5 418.5,-1175.5 418.5,-775.5 418.5,-732.85 381.86,-707.73 340.19,-692.96"/>
<polygon fill="black" stroke="black" points="341.25,-689.63 330.66,-689.79 339.04,-696.27 341.25,-689.63"/>
<text text-anchor="middle" x="549.5" y="-971.8" font-family="Times,serif" font-size="14.00">!(cache_hit &amp; line_valid) &amp; line_dirty</text>
</g>
<!-- RD_EVICT_WORD1 -->
<g id="node6" class="node">
<title>RD_EVICT_WORD1</title>
<polygon fill="none" stroke="black" points="53,-1001.5 53,-1091.5 390,-1091.5 390,-1001.5 53,-1001.5"/>
<text text-anchor="middle" x="221.5" y="-1080.3" font-family="Times,serif" font-size="14.00">RD_EVICT_WORD1</text>
<polyline fill="none" stroke="black" points="53,-1076.5 390,-1076.5 "/>
<text text-anchor="middle" x="221.5" y="-1065.3" font-family="Times,serif" font-size="14.00">cache_en=1</text>
<text text-anchor="middle" x="221.5" y="-1050.3" font-family="Times,serif" font-size="14.00">cache_tag_in=cache_tag_out</text>
<text text-anchor="middle" x="221.5" y="-1035.3" font-family="Times,serif" font-size="14.00">cache_offset=010</text>
<text text-anchor="middle" x="221.5" y="-1020.3" font-family="Times,serif" font-size="14.00">mem_addr={cache_tag_out, cache_index, 010}</text>
<text text-anchor="middle" x="221.5" y="-1005.3" font-family="Times,serif" font-size="14.00">mem_wr=1</text>
</g>
<!-- RD_EVICT_WORD0&#45;&gt;RD_EVICT_WORD1 -->
<g id="edge8" class="edge">
<title>RD_EVICT_WORD0&#45;&gt;RD_EVICT_WORD1</title>
<path fill="none" stroke="black" d="M221.5,-1129.43C221.5,-1120.56 221.5,-1111.14 221.5,-1101.97"/>
<polygon fill="black" stroke="black" points="225,-1101.76 221.5,-1091.76 218,-1101.76 225,-1101.76"/>
</g>
<!-- RD_EVICT_WORD2 -->
<g id="node7" class="node">
<title>RD_EVICT_WORD2</title>
<polygon fill="none" stroke="black" points="53,-859.5 53,-949.5 390,-949.5 390,-859.5 53,-859.5"/>
<text text-anchor="middle" x="221.5" y="-938.3" font-family="Times,serif" font-size="14.00">RD_EVICT_WORD2</text>
<polyline fill="none" stroke="black" points="53,-934.5 390,-934.5 "/>
<text text-anchor="middle" x="221.5" y="-923.3" font-family="Times,serif" font-size="14.00">cache_en=1</text>
<text text-anchor="middle" x="221.5" y="-908.3" font-family="Times,serif" font-size="14.00">cache_tag_in=cache_tag_out</text>
<text text-anchor="middle" x="221.5" y="-893.3" font-family="Times,serif" font-size="14.00">cache_offset=100</text>
<text text-anchor="middle" x="221.5" y="-878.3" font-family="Times,serif" font-size="14.00">mem_addr={cache_tag_out, cache_index, 100}</text>
<text text-anchor="middle" x="221.5" y="-863.3" font-family="Times,serif" font-size="14.00">mem_wr=1</text>
</g>
<!-- RD_EVICT_WORD1&#45;&gt;RD_EVICT_WORD2 -->
<g id="edge9" class="edge">
<title>RD_EVICT_WORD1&#45;&gt;RD_EVICT_WORD2</title>
<path fill="none" stroke="black" d="M221.5,-1001.2C221.5,-988.05 221.5,-973.5 221.5,-959.79"/>
<polygon fill="black" stroke="black" points="225,-959.51 221.5,-949.51 218,-959.51 225,-959.51"/>
</g>
<!-- RD_EVICT_WORD3 -->
<g id="node8" class="node">
<title>RD_EVICT_WORD3</title>
<polygon fill="none" stroke="black" points="53,-731.5 53,-821.5 390,-821.5 390,-731.5 53,-731.5"/>
<text text-anchor="middle" x="221.5" y="-810.3" font-family="Times,serif" font-size="14.00">RD_EVICT_WORD3</text>
<polyline fill="none" stroke="black" points="53,-806.5 390,-806.5 "/>
<text text-anchor="middle" x="221.5" y="-795.3" font-family="Times,serif" font-size="14.00">cache_en=1</text>
<text text-anchor="middle" x="221.5" y="-780.3" font-family="Times,serif" font-size="14.00">cache_tag_in=cache_tag_out</text>
<text text-anchor="middle" x="221.5" y="-765.3" font-family="Times,serif" font-size="14.00">cache_offset=110</text>
<text text-anchor="middle" x="221.5" y="-750.3" font-family="Times,serif" font-size="14.00">mem_addr={cache_tag_out, cache_index, 110}</text>
<text text-anchor="middle" x="221.5" y="-735.3" font-family="Times,serif" font-size="14.00">mem_wr=1</text>
</g>
<!-- RD_EVICT_WORD2&#45;&gt;RD_EVICT_WORD3 -->
<g id="edge10" class="edge">
<title>RD_EVICT_WORD2&#45;&gt;RD_EVICT_WORD3</title>
<path fill="none" stroke="black" d="M221.5,-859.43C221.5,-850.56 221.5,-841.14 221.5,-831.97"/>
<polygon fill="black" stroke="black" points="225,-831.76 221.5,-821.76 218,-831.76 225,-831.76"/>
</g>
<!-- RD_EVICT_WORD3&#45;&gt;RD_LOAD_WORD0 -->
<g id="edge11" class="edge">
<title>RD_EVICT_WORD3&#45;&gt;RD_LOAD_WORD0</title>
<path fill="none" stroke="black" d="M221.5,-731.31C221.5,-722.01 221.5,-712.38 221.5,-703.65"/>
<polygon fill="black" stroke="black" points="225,-703.54 221.5,-693.54 218,-703.54 225,-703.54"/>
</g>
<!-- RD_LOAD_WORD1 -->
<g id="node10" class="node">
<title>RD_LOAD_WORD1</title>
<polygon fill="none" stroke="black" points="109.5,-565.5 109.5,-610.5 327.5,-610.5 327.5,-565.5 109.5,-565.5"/>
<text text-anchor="middle" x="218.5" y="-599.3" font-family="Times,serif" font-size="14.00">RD_LOAD_WORD1</text>
<polyline fill="none" stroke="black" points="109.5,-595.5 327.5,-595.5 "/>
<text text-anchor="middle" x="218.5" y="-584.3" font-family="Times,serif" font-size="14.00">mem_rd=1</text>
<text text-anchor="middle" x="218.5" y="-569.3" font-family="Times,serif" font-size="14.00">mem_addr={Addr[15:3], 010}</text>
</g>
<!-- RD_LOAD_WORD0&#45;&gt;RD_LOAD_WORD1 -->
<g id="edge12" class="edge">
<title>RD_LOAD_WORD0&#45;&gt;RD_LOAD_WORD1</title>
<path fill="none" stroke="black" d="M220.7,-648.29C220.38,-639.85 220.02,-630.01 219.68,-620.79"/>
<polygon fill="black" stroke="black" points="223.17,-620.63 219.31,-610.77 216.18,-620.89 223.17,-620.63"/>
</g>
<!-- RD_LOAD_WORD2 -->
<g id="node11" class="node">
<title>RD_LOAD_WORD2</title>
<polygon fill="none" stroke="black" points="106.5,-437.5 106.5,-527.5 324.5,-527.5 324.5,-437.5 106.5,-437.5"/>
<text text-anchor="middle" x="215.5" y="-516.3" font-family="Times,serif" font-size="14.00">RD_LOAD_WORD2</text>
<polyline fill="none" stroke="black" points="106.5,-512.5 324.5,-512.5 "/>
<text text-anchor="middle" x="215.5" y="-501.3" font-family="Times,serif" font-size="14.00">mem_rd=1</text>
<text text-anchor="middle" x="215.5" y="-486.3" font-family="Times,serif" font-size="14.00">mem_addr={Addr[15:3], 100}</text>
<text text-anchor="middle" x="215.5" y="-471.3" font-family="Times,serif" font-size="14.00">cache_en=1</text>
<text text-anchor="middle" x="215.5" y="-456.3" font-family="Times,serif" font-size="14.00">cache_wr=1</text>
<text text-anchor="middle" x="215.5" y="-441.3" font-family="Times,serif" font-size="14.00">cache_offset=000</text>
</g>
<!-- RD_LOAD_WORD1&#45;&gt;RD_LOAD_WORD2 -->
<g id="edge13" class="edge">
<title>RD_LOAD_WORD1&#45;&gt;RD_LOAD_WORD2</title>
<path fill="none" stroke="black" d="M217.87,-565.3C217.64,-557.21 217.36,-547.61 217.08,-537.89"/>
<polygon fill="black" stroke="black" points="220.57,-537.67 216.78,-527.77 213.57,-537.87 220.57,-537.67"/>
</g>
<!-- RD_LOAD_WORD3 -->
<g id="node12" class="node">
<title>RD_LOAD_WORD3</title>
<polygon fill="none" stroke="black" points="99.5,-309.5 99.5,-399.5 317.5,-399.5 317.5,-309.5 99.5,-309.5"/>
<text text-anchor="middle" x="208.5" y="-388.3" font-family="Times,serif" font-size="14.00">RD_LOAD_WORD3</text>
<polyline fill="none" stroke="black" points="99.5,-384.5 317.5,-384.5 "/>
<text text-anchor="middle" x="208.5" y="-373.3" font-family="Times,serif" font-size="14.00">mem_rd=1</text>
<text text-anchor="middle" x="208.5" y="-358.3" font-family="Times,serif" font-size="14.00">mem_addr={Addr[15:3], 110}</text>
<text text-anchor="middle" x="208.5" y="-343.3" font-family="Times,serif" font-size="14.00">cache_en=1</text>
<text text-anchor="middle" x="208.5" y="-328.3" font-family="Times,serif" font-size="14.00">cache_wr=1</text>
<text text-anchor="middle" x="208.5" y="-313.3" font-family="Times,serif" font-size="14.00">cache_offset=010</text>
</g>
<!-- RD_LOAD_WORD2&#45;&gt;RD_LOAD_WORD3 -->
<g id="edge14" class="edge">
<title>RD_LOAD_WORD2&#45;&gt;RD_LOAD_WORD3</title>
<path fill="none" stroke="black" d="M213.05,-437.43C212.56,-428.56 212.04,-419.14 211.53,-409.97"/>
<polygon fill="black" stroke="black" points="215.01,-409.55 210.96,-399.76 208.02,-409.94 215.01,-409.55"/>
</g>
<!-- RD_LOAD_WAIT0 -->
<g id="node13" class="node">
<title>RD_LOAD_WAIT0</title>
<polygon fill="none" stroke="black" points="93,-211.5 93,-271.5 220,-271.5 220,-211.5 93,-211.5"/>
<text text-anchor="middle" x="156.5" y="-260.3" font-family="Times,serif" font-size="14.00">RD_LOAD_WAIT0</text>
<polyline fill="none" stroke="black" points="93,-256.5 220,-256.5 "/>
<text text-anchor="middle" x="156.5" y="-245.3" font-family="Times,serif" font-size="14.00">cache_en=1</text>
<text text-anchor="middle" x="156.5" y="-230.3" font-family="Times,serif" font-size="14.00">cache_wr=1</text>
<text text-anchor="middle" x="156.5" y="-215.3" font-family="Times,serif" font-size="14.00">cache_offset=100</text>
</g>
<!-- RD_LOAD_WORD3&#45;&gt;RD_LOAD_WAIT0 -->
<g id="edge15" class="edge">
<title>RD_LOAD_WORD3&#45;&gt;RD_LOAD_WAIT0</title>
<path fill="none" stroke="black" d="M187.8,-309.31C183.38,-299.89 178.76,-290.01 174.46,-280.83"/>
<polygon fill="black" stroke="black" points="177.53,-279.13 170.11,-271.56 171.19,-282.1 177.53,-279.13"/>
</g>
<!-- RD_LOAD_DONE -->
<g id="node14" class="node">
<title>RD_LOAD_DONE</title>
<polygon fill="none" stroke="black" points="79,-113.5 79,-173.5 206,-173.5 206,-113.5 79,-113.5"/>
<text text-anchor="middle" x="142.5" y="-162.3" font-family="Times,serif" font-size="14.00">RD_LOAD_DONE</text>
<polyline fill="none" stroke="black" points="79,-158.5 206,-158.5 "/>
<text text-anchor="middle" x="142.5" y="-147.3" font-family="Times,serif" font-size="14.00">cache_en=1</text>
<text text-anchor="middle" x="142.5" y="-132.3" font-family="Times,serif" font-size="14.00">cache_wr=1</text>
<text text-anchor="middle" x="142.5" y="-117.3" font-family="Times,serif" font-size="14.00">cache_offset=110</text>
</g>
<!-- RD_LOAD_WAIT0&#45;&gt;RD_LOAD_DONE -->
<g id="edge16" class="edge">
<title>RD_LOAD_WAIT0&#45;&gt;RD_LOAD_DONE</title>
<path fill="none" stroke="black" d="M152.26,-211.44C151,-202.78 149.59,-193.14 148.25,-183.93"/>
<polygon fill="black" stroke="black" points="151.68,-183.19 146.77,-173.8 144.75,-184.2 151.68,-183.19"/>
</g>
<!-- RD_FROM_CACHE -->
<g id="node15" class="node">
<title>RD_FROM_CACHE</title>
<polygon fill="none" stroke="black" points="0,-8 0,-68 135,-68 135,-8 0,-8"/>
<text text-anchor="middle" x="67.5" y="-56.8" font-family="Times,serif" font-size="14.00">RD_FROM_CACHE</text>
<polyline fill="none" stroke="black" points="0,-53 135,-53 "/>
<text text-anchor="middle" x="67.5" y="-41.8" font-family="Times,serif" font-size="14.00">Done=1</text>
<text text-anchor="middle" x="67.5" y="-26.8" font-family="Times,serif" font-size="14.00">cache_en=1</text>
<text text-anchor="middle" x="67.5" y="-11.8" font-family="Times,serif" font-size="14.00">cache_comp=1</text>
</g>
<!-- RD_LOAD_DONE&#45;&gt;RD_FROM_CACHE -->
<g id="edge17" class="edge">
<title>RD_LOAD_DONE&#45;&gt;RD_FROM_CACHE</title>
<path fill="none" stroke="black" d="M121.41,-113.39C113.1,-101.93 103.45,-88.62 94.64,-76.45"/>
<polygon fill="black" stroke="black" points="97.39,-74.29 88.69,-68.25 91.73,-78.4 97.39,-74.29"/>
</g>
<!-- RD_FROM_CACHE&#45;&gt;IDLE -->
<g id="edge18" class="edge">
<title>RD_FROM_CACHE&#45;&gt;IDLE</title>
<path fill="none" stroke="black" d="M48.26,-68.02C36.81,-88.08 24.5,-115.84 24.5,-142.5 24.5,-1325 24.5,-1325 24.5,-1325 24.5,-1417.66 360.34,-1439.51 474.81,-1444.27"/>
<polygon fill="black" stroke="black" points="474.73,-1447.77 484.86,-1444.66 475.01,-1440.77 474.73,-1447.77"/>
</g>
<!-- WR_START&#45;&gt;IDLE -->
<g id="edge19" class="edge">
<title>WR_START&#45;&gt;IDLE</title>
<path fill="none" stroke="black" d="M639.04,-1376.83C635.6,-1388.93 630.14,-1400.91 621.5,-1410 602.99,-1429.48 573.68,-1438.28 550.12,-1442.26"/>
<polygon fill="black" stroke="black" points="549.48,-1438.81 540.09,-1443.72 550.49,-1445.74 549.48,-1438.81"/>
<text text-anchor="middle" x="710" y="-1398.8" font-family="Times,serif" font-size="14.00">cache_hit &amp; line_valid</text>
</g>
<!-- WR_EVICT_WORD0 -->
<g id="node17" class="node">
<title>WR_EVICT_WORD0</title>
<polygon fill="none" stroke="black" points="457,-1129.5 457,-1219.5 794,-1219.5 794,-1129.5 457,-1129.5"/>
<text text-anchor="middle" x="625.5" y="-1208.3" font-family="Times,serif" font-size="14.00">WR_EVICT_WORD0</text>
<polyline fill="none" stroke="black" points="457,-1204.5 794,-1204.5 "/>
<text text-anchor="middle" x="625.5" y="-1193.3" font-family="Times,serif" font-size="14.00">cache_en=1</text>
<text text-anchor="middle" x="625.5" y="-1178.3" font-family="Times,serif" font-size="14.00">cache_tag_in=cache_tag_out</text>
<text text-anchor="middle" x="625.5" y="-1163.3" font-family="Times,serif" font-size="14.00">cache_offset=000</text>
<text text-anchor="middle" x="625.5" y="-1148.3" font-family="Times,serif" font-size="14.00">mem_addr={cache_tag_out, cache_index, 000}</text>
<text text-anchor="middle" x="625.5" y="-1133.3" font-family="Times,serif" font-size="14.00">mem_wr=1</text>
</g>
<!-- WR_START&#45;&gt;WR_EVICT_WORD0 -->
<g id="edge21" class="edge">
<title>WR_START&#45;&gt;WR_EVICT_WORD0</title>
<path fill="none" stroke="black" d="M621.31,-1271.29C619.34,-1265.22 617.66,-1259.04 616.5,-1253 615.06,-1245.51 614.69,-1237.56 614.98,-1229.72"/>
<polygon fill="black" stroke="black" points="618.49,-1229.76 615.72,-1219.53 611.51,-1229.25 618.49,-1229.76"/>
<text text-anchor="middle" x="747.5" y="-1241.8" font-family="Times,serif" font-size="14.00">!(cache_hit &amp; line_valid) &amp; line_dirty</text>
</g>
<!-- WR_LOAD_WORD0 -->
<g id="node21" class="node">
<title>WR_LOAD_WORD0</title>
<polygon fill="none" stroke="black" points="783.5,-648.5 783.5,-693.5 1001.5,-693.5 1001.5,-648.5 783.5,-648.5"/>
<text text-anchor="middle" x="892.5" y="-682.3" font-family="Times,serif" font-size="14.00">WR_LOAD_WORD0</text>
<polyline fill="none" stroke="black" points="783.5,-678.5 1001.5,-678.5 "/>
<text text-anchor="middle" x="892.5" y="-667.3" font-family="Times,serif" font-size="14.00">mem_rd=1</text>
<text text-anchor="middle" x="892.5" y="-652.3" font-family="Times,serif" font-size="14.00">mem_addr={Addr[15:3], 000}</text>
</g>
<!-- WR_START&#45;&gt;WR_LOAD_WORD0 -->
<g id="edge20" class="edge">
<title>WR_START&#45;&gt;WR_LOAD_WORD0</title>
<path fill="none" stroke="black" d="M762.63,-1313.11C804.77,-1303.68 849.04,-1285.96 878.5,-1253 901.83,-1226.9 892.5,-1210.5 892.5,-1175.5 892.5,-1175.5 892.5,-1175.5 892.5,-775.5 892.5,-751.48 892.5,-724.32 892.5,-703.85"/>
<polygon fill="black" stroke="black" points="896,-703.81 892.5,-693.81 889,-703.81 896,-703.81"/>
<text text-anchor="middle" x="1026.5" y="-971.8" font-family="Times,serif" font-size="14.00">!(cache_hit &amp; line_valid) &amp; !line_dirty</text>
</g>
<!-- WR_EVICT_WORD1 -->
<g id="node18" class="node">
<title>WR_EVICT_WORD1</title>
<polygon fill="none" stroke="black" points="507,-1001.5 507,-1091.5 844,-1091.5 844,-1001.5 507,-1001.5"/>
<text text-anchor="middle" x="675.5" y="-1080.3" font-family="Times,serif" font-size="14.00">WR_EVICT_WORD1</text>
<polyline fill="none" stroke="black" points="507,-1076.5 844,-1076.5 "/>
<text text-anchor="middle" x="675.5" y="-1065.3" font-family="Times,serif" font-size="14.00">cache_en=1</text>
<text text-anchor="middle" x="675.5" y="-1050.3" font-family="Times,serif" font-size="14.00">cache_tag_in=cache_tag_out</text>
<text text-anchor="middle" x="675.5" y="-1035.3" font-family="Times,serif" font-size="14.00">cache_offset=010</text>
<text text-anchor="middle" x="675.5" y="-1020.3" font-family="Times,serif" font-size="14.00">mem_addr={cache_tag_out, cache_index, 010}</text>
<text text-anchor="middle" x="675.5" y="-1005.3" font-family="Times,serif" font-size="14.00">mem_wr=1</text>
</g>
<!-- WR_EVICT_WORD0&#45;&gt;WR_EVICT_WORD1 -->
<g id="edge22" class="edge">
<title>WR_EVICT_WORD0&#45;&gt;WR_EVICT_WORD1</title>
<path fill="none" stroke="black" d="M642.99,-1129.43C646.62,-1120.28 650.49,-1110.53 654.24,-1101.08"/>
<polygon fill="black" stroke="black" points="657.5,-1102.34 657.94,-1091.76 651,-1099.76 657.5,-1102.34"/>
</g>
<!-- WR_EVICT_WORD2 -->
<g id="node19" class="node">
<title>WR_EVICT_WORD2</title>
<polygon fill="none" stroke="black" points="527,-859.5 527,-949.5 864,-949.5 864,-859.5 527,-859.5"/>
<text text-anchor="middle" x="695.5" y="-938.3" font-family="Times,serif" font-size="14.00">WR_EVICT_WORD2</text>
<polyline fill="none" stroke="black" points="527,-934.5 864,-934.5 "/>
<text text-anchor="middle" x="695.5" y="-923.3" font-family="Times,serif" font-size="14.00">cache_en=1</text>
<text text-anchor="middle" x="695.5" y="-908.3" font-family="Times,serif" font-size="14.00">cache_tag_in=cache_tag_out</text>
<text text-anchor="middle" x="695.5" y="-893.3" font-family="Times,serif" font-size="14.00">cache_offset=100</text>
<text text-anchor="middle" x="695.5" y="-878.3" font-family="Times,serif" font-size="14.00">mem_addr={cache_tag_out, cache_index, 100}</text>
<text text-anchor="middle" x="695.5" y="-863.3" font-family="Times,serif" font-size="14.00">mem_wr=1</text>
</g>
<!-- WR_EVICT_WORD1&#45;&gt;WR_EVICT_WORD2 -->
<g id="edge23" class="edge">
<title>WR_EVICT_WORD1&#45;&gt;WR_EVICT_WORD2</title>
<path fill="none" stroke="black" d="M681.83,-1001.2C683.71,-988.05 685.79,-973.5 687.74,-959.79"/>
<polygon fill="black" stroke="black" points="691.26,-959.9 689.21,-949.51 684.33,-958.91 691.26,-959.9"/>
</g>
<!-- WR_EVICT_WORD3 -->
<g id="node20" class="node">
<title>WR_EVICT_WORD3</title>
<polygon fill="none" stroke="black" points="527,-731.5 527,-821.5 864,-821.5 864,-731.5 527,-731.5"/>
<text text-anchor="middle" x="695.5" y="-810.3" font-family="Times,serif" font-size="14.00">WR_EVICT_WORD3</text>
<polyline fill="none" stroke="black" points="527,-806.5 864,-806.5 "/>
<text text-anchor="middle" x="695.5" y="-795.3" font-family="Times,serif" font-size="14.00">cache_en=1</text>
<text text-anchor="middle" x="695.5" y="-780.3" font-family="Times,serif" font-size="14.00">cache_tag_in=cache_tag_out</text>
<text text-anchor="middle" x="695.5" y="-765.3" font-family="Times,serif" font-size="14.00">cache_offset=110</text>
<text text-anchor="middle" x="695.5" y="-750.3" font-family="Times,serif" font-size="14.00">mem_addr={cache_tag_out, cache_index, 110}</text>
<text text-anchor="middle" x="695.5" y="-735.3" font-family="Times,serif" font-size="14.00">mem_wr=1</text>
</g>
<!-- WR_EVICT_WORD2&#45;&gt;WR_EVICT_WORD3 -->
<g id="edge24" class="edge">
<title>WR_EVICT_WORD2&#45;&gt;WR_EVICT_WORD3</title>
<path fill="none" stroke="black" d="M695.5,-859.43C695.5,-850.56 695.5,-841.14 695.5,-831.97"/>
<polygon fill="black" stroke="black" points="699,-831.76 695.5,-821.76 692,-831.76 699,-831.76"/>
</g>
<!-- WR_EVICT_WORD3&#45;&gt;WR_LOAD_WORD0 -->
<g id="edge25" class="edge">
<title>WR_EVICT_WORD3&#45;&gt;WR_LOAD_WORD0</title>
<path fill="none" stroke="black" d="M779.33,-731.46C800.85,-720.15 823.32,-708.35 842.52,-698.26"/>
<polygon fill="black" stroke="black" points="844.15,-701.36 851.37,-693.61 840.89,-695.16 844.15,-701.36"/>
</g>
<!-- WR_LOAD_WORD1 -->
<g id="node22" class="node">
<title>WR_LOAD_WORD1</title>
<polygon fill="none" stroke="black" points="801.5,-565.5 801.5,-610.5 1019.5,-610.5 1019.5,-565.5 801.5,-565.5"/>
<text text-anchor="middle" x="910.5" y="-599.3" font-family="Times,serif" font-size="14.00">WR_LOAD_WORD1</text>
<polyline fill="none" stroke="black" points="801.5,-595.5 1019.5,-595.5 "/>
<text text-anchor="middle" x="910.5" y="-584.3" font-family="Times,serif" font-size="14.00">mem_rd=1</text>
<text text-anchor="middle" x="910.5" y="-569.3" font-family="Times,serif" font-size="14.00">mem_addr={Addr[15:3], 010}</text>
</g>
<!-- WR_LOAD_WORD0&#45;&gt;WR_LOAD_WORD1 -->
<g id="edge26" class="edge">
<title>WR_LOAD_WORD0&#45;&gt;WR_LOAD_WORD1</title>
<path fill="none" stroke="black" d="M897.32,-648.29C899.2,-639.85 901.39,-630.01 903.44,-620.79"/>
<polygon fill="black" stroke="black" points="906.91,-621.29 905.66,-610.77 900.08,-619.77 906.91,-621.29"/>
</g>
<!-- WR_LOAD_WORD2 -->
<g id="node23" class="node">
<title>WR_LOAD_WORD2</title>
<polygon fill="none" stroke="black" points="828.5,-437.5 828.5,-527.5 1046.5,-527.5 1046.5,-437.5 828.5,-437.5"/>
<text text-anchor="middle" x="937.5" y="-516.3" font-family="Times,serif" font-size="14.00">WR_LOAD_WORD2</text>
<polyline fill="none" stroke="black" points="828.5,-512.5 1046.5,-512.5 "/>
<text text-anchor="middle" x="937.5" y="-501.3" font-family="Times,serif" font-size="14.00">mem_rd=1</text>
<text text-anchor="middle" x="937.5" y="-486.3" font-family="Times,serif" font-size="14.00">mem_addr={Addr[15:3], 100}</text>
<text text-anchor="middle" x="937.5" y="-471.3" font-family="Times,serif" font-size="14.00">cache_en=1</text>
<text text-anchor="middle" x="937.5" y="-456.3" font-family="Times,serif" font-size="14.00">cache_wr=1</text>
<text text-anchor="middle" x="937.5" y="-441.3" font-family="Times,serif" font-size="14.00">cache_offset=000</text>
</g>
<!-- WR_LOAD_WORD1&#45;&gt;WR_LOAD_WORD2 -->
<g id="edge27" class="edge">
<title>WR_LOAD_WORD1&#45;&gt;WR_LOAD_WORD2</title>
<path fill="none" stroke="black" d="M916.16,-565.3C918.29,-557.12 920.83,-547.41 923.39,-537.58"/>
<polygon fill="black" stroke="black" points="926.81,-538.33 925.95,-527.77 920.04,-536.57 926.81,-538.33"/>
</g>
<!-- WR_LOAD_WORD3 -->
<g id="node24" class="node">
<title>WR_LOAD_WORD3</title>
<polygon fill="none" stroke="black" points="877.5,-309.5 877.5,-399.5 1095.5,-399.5 1095.5,-309.5 877.5,-309.5"/>
<text text-anchor="middle" x="986.5" y="-388.3" font-family="Times,serif" font-size="14.00">WR_LOAD_WORD3</text>
<polyline fill="none" stroke="black" points="877.5,-384.5 1095.5,-384.5 "/>
<text text-anchor="middle" x="986.5" y="-373.3" font-family="Times,serif" font-size="14.00">mem_rd=1</text>
<text text-anchor="middle" x="986.5" y="-358.3" font-family="Times,serif" font-size="14.00">mem_addr={Addr[15:3], 110}</text>
<text text-anchor="middle" x="986.5" y="-343.3" font-family="Times,serif" font-size="14.00">cache_en=1</text>
<text text-anchor="middle" x="986.5" y="-328.3" font-family="Times,serif" font-size="14.00">cache_wr=1</text>
<text text-anchor="middle" x="986.5" y="-313.3" font-family="Times,serif" font-size="14.00">cache_offset=010</text>
</g>
<!-- WR_LOAD_WORD2&#45;&gt;WR_LOAD_WORD3 -->
<g id="edge28" class="edge">
<title>WR_LOAD_WORD2&#45;&gt;WR_LOAD_WORD3</title>
<path fill="none" stroke="black" d="M954.64,-437.43C958.2,-428.28 961.99,-418.53 965.66,-409.08"/>
<polygon fill="black" stroke="black" points="968.93,-410.35 969.29,-399.76 962.4,-407.81 968.93,-410.35"/>
</g>
<!-- WR_LOAD_WAIT0 -->
<g id="node25" class="node">
<title>WR_LOAD_WAIT0</title>
<polygon fill="none" stroke="black" points="925,-211.5 925,-271.5 1052,-271.5 1052,-211.5 925,-211.5"/>
<text text-anchor="middle" x="988.5" y="-260.3" font-family="Times,serif" font-size="14.00">WR_LOAD_WAIT0</text>
<polyline fill="none" stroke="black" points="925,-256.5 1052,-256.5 "/>
<text text-anchor="middle" x="988.5" y="-245.3" font-family="Times,serif" font-size="14.00">cache_en=1</text>
<text text-anchor="middle" x="988.5" y="-230.3" font-family="Times,serif" font-size="14.00">cache_wr=1</text>
<text text-anchor="middle" x="988.5" y="-215.3" font-family="Times,serif" font-size="14.00">cache_offset=100</text>
</g>
<!-- WR_LOAD_WORD3&#45;&gt;WR_LOAD_WAIT0 -->
<g id="edge29" class="edge">
<title>WR_LOAD_WORD3&#45;&gt;WR_LOAD_WAIT0</title>
<path fill="none" stroke="black" d="M987.3,-309.31C987.46,-300.19 987.63,-290.63 987.79,-281.7"/>
<polygon fill="black" stroke="black" points="991.3,-281.62 987.98,-271.56 984.3,-281.5 991.3,-281.62"/>
</g>
<!-- WR_LOAD_DONE -->
<g id="node26" class="node">
<title>WR_LOAD_DONE</title>
<polygon fill="none" stroke="black" points="1020,-113.5 1020,-173.5 1147,-173.5 1147,-113.5 1020,-113.5"/>
<text text-anchor="middle" x="1083.5" y="-162.3" font-family="Times,serif" font-size="14.00">WR_LOAD_DONE</text>
<polyline fill="none" stroke="black" points="1020,-158.5 1147,-158.5 "/>
<text text-anchor="middle" x="1083.5" y="-147.3" font-family="Times,serif" font-size="14.00">cache_en=1</text>
<text text-anchor="middle" x="1083.5" y="-132.3" font-family="Times,serif" font-size="14.00">cache_wr=1</text>
<text text-anchor="middle" x="1083.5" y="-117.3" font-family="Times,serif" font-size="14.00">cache_offset=110</text>
</g>
<!-- WR_LOAD_WAIT0&#45;&gt;WR_LOAD_DONE -->
<g id="edge30" class="edge">
<title>WR_LOAD_WAIT0&#45;&gt;WR_LOAD_DONE</title>
<path fill="none" stroke="black" d="M1017.26,-211.44C1026.75,-201.84 1037.43,-191.05 1047.4,-180.98"/>
<polygon fill="black" stroke="black" points="1049.96,-183.37 1054.51,-173.8 1044.99,-178.44 1049.96,-183.37"/>
</g>
<!-- WR_TO_CACHE -->
<g id="node27" class="node">
<title>WR_TO_CACHE</title>
<polygon fill="none" stroke="black" points="1081.5,-0.5 1081.5,-75.5 1211.5,-75.5 1211.5,-0.5 1081.5,-0.5"/>
<text text-anchor="middle" x="1146.5" y="-64.3" font-family="Times,serif" font-size="14.00">WR_TO_CACHE</text>
<polyline fill="none" stroke="black" points="1081.5,-60.5 1211.5,-60.5 "/>
<text text-anchor="middle" x="1146.5" y="-49.3" font-family="Times,serif" font-size="14.00">cache_din=DataIn</text>
<text text-anchor="middle" x="1146.5" y="-34.3" font-family="Times,serif" font-size="14.00">cache_en=1</text>
<text text-anchor="middle" x="1146.5" y="-19.3" font-family="Times,serif" font-size="14.00">cache_comp=1</text>
<text text-anchor="middle" x="1146.5" y="-4.3" font-family="Times,serif" font-size="14.00">cache_wr=1</text>
</g>
<!-- WR_LOAD_DONE&#45;&gt;WR_TO_CACHE -->
<g id="edge31" class="edge">
<title>WR_LOAD_DONE&#45;&gt;WR_TO_CACHE</title>
<path fill="none" stroke="black" d="M1101.22,-113.39C1106.73,-104.33 1112.95,-94.11 1118.98,-84.22"/>
<polygon fill="black" stroke="black" points="1121.99,-86 1124.2,-75.64 1116.01,-82.36 1121.99,-86"/>
</g>
<!-- WR_TO_CACHE&#45;&gt;IDLE -->
<g id="edge32" class="edge">
<title>WR_TO_CACHE&#45;&gt;IDLE</title>
<path fill="none" stroke="black" d="M1162.02,-75.67C1168.91,-95.16 1175.5,-119.73 1175.5,-142.5 1175.5,-1325 1175.5,-1325 1175.5,-1325 1175.5,-1388.99 691.19,-1431.62 550.43,-1442.66"/>
<polygon fill="black" stroke="black" points="549.84,-1439.19 540.14,-1443.46 550.39,-1446.17 549.84,-1439.19"/>
</g>
</g>
</svg>
