<?xml version="1.0" encoding="UTF-8" standalone="no"?>
<!DOCTYPE svg PUBLIC "-//W3C//DTD SVG 1.1//EN"
 "http://www.w3.org/Graphics/SVG/1.1/DTD/svg11.dtd">
<!-- Generated by graphviz version 2.43.0 (0)
 -->
<!-- Title: controller_fsm Pages: 1 -->
<svg width="214pt" height="1308pt"
 viewBox="0.00 0.00 213.50 1307.60" xmlns="http://www.w3.org/2000/svg" xmlns:xlink="http://www.w3.org/1999/xlink">
<g id="graph0" class="graph" transform="scale(1 1) rotate(0) translate(4 1303.6)">
<title>controller_fsm</title>
<polygon fill="white" stroke="transparent" points="-4,4 -4,-1303.6 209.5,-1303.6 209.5,4 -4,4"/>
<!-- RESET -->
<g id="node1" class="node">
<title>RESET</title>
<ellipse fill="black" stroke="black" cx="116.5" cy="-1297.8" rx="1.8" ry="1.8"/>
</g>
<!-- IDLE -->
<g id="node2" class="node">
<title>IDLE</title>
<polygon fill="none" stroke="black" points="143.5,-1260 89.5,-1260 89.5,-1224 143.5,-1224 143.5,-1260"/>
<text text-anchor="middle" x="116.5" y="-1238.3" font-family="Times,serif" font-size="14.00">IDLE</text>
</g>
<!-- RESET&#45;&gt;IDLE -->
<g id="edge1" class="edge">
<title>RESET&#45;&gt;IDLE</title>
<path fill="none" stroke="black" d="M116.5,-1295.87C116.5,-1292.64 116.5,-1281.55 116.5,-1270.35"/>
<polygon fill="black" stroke="black" points="120,-1270.26 116.5,-1260.26 113,-1270.26 120,-1270.26"/>
</g>
<!-- START_RD -->
<g id="node3" class="node">
<title>START_RD</title>
<polygon fill="none" stroke="black" points="107,-1188 30,-1188 30,-1152 107,-1152 107,-1188"/>
<text text-anchor="middle" x="68.5" y="-1166.3" font-family="Times,serif" font-size="14.00">START_RD</text>
</g>
<!-- IDLE&#45;&gt;START_RD -->
<g id="edge2" class="edge">
<title>IDLE&#45;&gt;START_RD</title>
<path fill="none" stroke="black" d="M104.63,-1223.7C99,-1215.47 92.15,-1205.48 85.93,-1196.42"/>
<polygon fill="black" stroke="black" points="88.77,-1194.37 80.23,-1188.1 83,-1198.33 88.77,-1194.37"/>
</g>
<!-- START_WR -->
<g id="node19" class="node">
<title>START_WR</title>
<polygon fill="none" stroke="black" points="205.5,-1188 125.5,-1188 125.5,-1152 205.5,-1152 205.5,-1188"/>
<text text-anchor="middle" x="165.5" y="-1166.3" font-family="Times,serif" font-size="14.00">START_WR</text>
</g>
<!-- IDLE&#45;&gt;START_WR -->
<g id="edge19" class="edge">
<title>IDLE&#45;&gt;START_WR</title>
<path fill="none" stroke="black" d="M128.61,-1223.7C134.37,-1215.47 141.36,-1205.48 147.71,-1196.42"/>
<polygon fill="black" stroke="black" points="150.66,-1198.3 153.53,-1188.1 144.92,-1194.29 150.66,-1198.3"/>
</g>
<!-- RD_MISS -->
<g id="node4" class="node">
<title>RD_MISS</title>
<polygon fill="none" stroke="black" points="102.5,-1116 34.5,-1116 34.5,-1080 102.5,-1080 102.5,-1116"/>
<text text-anchor="middle" x="68.5" y="-1094.3" font-family="Times,serif" font-size="14.00">RD_MISS</text>
</g>
<!-- START_RD&#45;&gt;RD_MISS -->
<g id="edge3" class="edge">
<title>START_RD&#45;&gt;RD_MISS</title>
<path fill="none" stroke="black" d="M68.5,-1151.7C68.5,-1143.98 68.5,-1134.71 68.5,-1126.11"/>
<polygon fill="black" stroke="black" points="72,-1126.1 68.5,-1116.1 65,-1126.1 72,-1126.1"/>
</g>
<!-- RD_EVICT_WORD0 -->
<g id="node5" class="node">
<title>RD_EVICT_WORD0</title>
<polygon fill="none" stroke="black" points="137,-1044 0,-1044 0,-1008 137,-1008 137,-1044"/>
<text text-anchor="middle" x="68.5" y="-1022.3" font-family="Times,serif" font-size="14.00">RD_EVICT_WORD0</text>
</g>
<!-- RD_MISS&#45;&gt;RD_EVICT_WORD0 -->
<g id="edge4" class="edge">
<title>RD_MISS&#45;&gt;RD_EVICT_WORD0</title>
<path fill="none" stroke="black" d="M68.5,-1079.7C68.5,-1071.98 68.5,-1062.71 68.5,-1054.11"/>
<polygon fill="black" stroke="black" points="72,-1054.1 68.5,-1044.1 65,-1054.1 72,-1054.1"/>
</g>
<!-- RD_EVICT_WORD1 -->
<g id="node6" class="node">
<title>RD_EVICT_WORD1</title>
<polygon fill="none" stroke="black" points="137,-972 0,-972 0,-936 137,-936 137,-972"/>
<text text-anchor="middle" x="68.5" y="-950.3" font-family="Times,serif" font-size="14.00">RD_EVICT_WORD1</text>
</g>
<!-- RD_EVICT_WORD0&#45;&gt;RD_EVICT_WORD1 -->
<g id="edge5" class="edge">
<title>RD_EVICT_WORD0&#45;&gt;RD_EVICT_WORD1</title>
<path fill="none" stroke="black" d="M68.5,-1007.7C68.5,-999.98 68.5,-990.71 68.5,-982.11"/>
<polygon fill="black" stroke="black" points="72,-982.1 68.5,-972.1 65,-982.1 72,-982.1"/>
</g>
<!-- RD_EVICT_WORD2 -->
<g id="node7" class="node">
<title>RD_EVICT_WORD2</title>
<polygon fill="none" stroke="black" points="137,-900 0,-900 0,-864 137,-864 137,-900"/>
<text text-anchor="middle" x="68.5" y="-878.3" font-family="Times,serif" font-size="14.00">RD_EVICT_WORD2</text>
</g>
<!-- RD_EVICT_WORD1&#45;&gt;RD_EVICT_WORD2 -->
<g id="edge6" class="edge">
<title>RD_EVICT_WORD1&#45;&gt;RD_EVICT_WORD2</title>
<path fill="none" stroke="black" d="M68.5,-935.7C68.5,-927.98 68.5,-918.71 68.5,-910.11"/>
<polygon fill="black" stroke="black" points="72,-910.1 68.5,-900.1 65,-910.1 72,-910.1"/>
</g>
<!-- RD_EVICT_WORD3 -->
<g id="node8" class="node">
<title>RD_EVICT_WORD3</title>
<polygon fill="none" stroke="black" points="137,-828 0,-828 0,-792 137,-792 137,-828"/>
<text text-anchor="middle" x="68.5" y="-806.3" font-family="Times,serif" font-size="14.00">RD_EVICT_WORD3</text>
</g>
<!-- RD_EVICT_WORD2&#45;&gt;RD_EVICT_WORD3 -->
<g id="edge7" class="edge">
<title>RD_EVICT_WORD2&#45;&gt;RD_EVICT_WORD3</title>
<path fill="none" stroke="black" d="M68.5,-863.7C68.5,-855.98 68.5,-846.71 68.5,-838.11"/>
<polygon fill="black" stroke="black" points="72,-838.1 68.5,-828.1 65,-838.1 72,-838.1"/>
</g>
<!-- RD_EVICT_WAIT0 -->
<g id="node9" class="node">
<title>RD_EVICT_WAIT0</title>
<polygon fill="none" stroke="black" points="132.5,-756 4.5,-756 4.5,-720 132.5,-720 132.5,-756"/>
<text text-anchor="middle" x="68.5" y="-734.3" font-family="Times,serif" font-size="14.00">RD_EVICT_WAIT0</text>
</g>
<!-- RD_EVICT_WORD3&#45;&gt;RD_EVICT_WAIT0 -->
<g id="edge8" class="edge">
<title>RD_EVICT_WORD3&#45;&gt;RD_EVICT_WAIT0</title>
<path fill="none" stroke="black" d="M68.5,-791.7C68.5,-783.98 68.5,-774.71 68.5,-766.11"/>
<polygon fill="black" stroke="black" points="72,-766.1 68.5,-756.1 65,-766.1 72,-766.1"/>
</g>
<!-- RD_EVICT_WAIT1 -->
<g id="node10" class="node">
<title>RD_EVICT_WAIT1</title>
<polygon fill="none" stroke="black" points="132.5,-684 4.5,-684 4.5,-648 132.5,-648 132.5,-684"/>
<text text-anchor="middle" x="68.5" y="-662.3" font-family="Times,serif" font-size="14.00">RD_EVICT_WAIT1</text>
</g>
<!-- RD_EVICT_WAIT0&#45;&gt;RD_EVICT_WAIT1 -->
<g id="edge9" class="edge">
<title>RD_EVICT_WAIT0&#45;&gt;RD_EVICT_WAIT1</title>
<path fill="none" stroke="black" d="M68.5,-719.7C68.5,-711.98 68.5,-702.71 68.5,-694.11"/>
<polygon fill="black" stroke="black" points="72,-694.1 68.5,-684.1 65,-694.1 72,-694.1"/>
</g>
<!-- RD_EVICT_WAIT2 -->
<g id="node11" class="node">
<title>RD_EVICT_WAIT2</title>
<polygon fill="none" stroke="black" points="132.5,-612 4.5,-612 4.5,-576 132.5,-576 132.5,-612"/>
<text text-anchor="middle" x="68.5" y="-590.3" font-family="Times,serif" font-size="14.00">RD_EVICT_WAIT2</text>
</g>
<!-- RD_EVICT_WAIT1&#45;&gt;RD_EVICT_WAIT2 -->
<g id="edge10" class="edge">
<title>RD_EVICT_WAIT1&#45;&gt;RD_EVICT_WAIT2</title>
<path fill="none" stroke="black" d="M68.5,-647.7C68.5,-639.98 68.5,-630.71 68.5,-622.11"/>
<polygon fill="black" stroke="black" points="72,-622.1 68.5,-612.1 65,-622.1 72,-622.1"/>
</g>
<!-- RD_EVICT_WAIT3 -->
<g id="node21" class="node">
<title>RD_EVICT_WAIT3</title>
<polygon fill="none" stroke="black" points="132.5,-540 4.5,-540 4.5,-504 132.5,-504 132.5,-540"/>
<text text-anchor="middle" x="68.5" y="-518.3" font-family="Times,serif" font-size="14.00">RD_EVICT_WAIT3</text>
</g>
<!-- RD_EVICT_WAIT2&#45;&gt;RD_EVICT_WAIT3 -->
<g id="edge11" class="edge">
<title>RD_EVICT_WAIT2&#45;&gt;RD_EVICT_WAIT3</title>
<path fill="none" stroke="black" d="M68.5,-575.7C68.5,-567.98 68.5,-558.71 68.5,-550.11"/>
<polygon fill="black" stroke="black" points="72,-550.1 68.5,-540.1 65,-550.1 72,-550.1"/>
</g>
<!-- RD_EVICT_DONE -->
<g id="node12" class="node">
<title>RD_EVICT_DONE</title>
<polygon fill="none" stroke="black" points="131.5,-468 5.5,-468 5.5,-432 131.5,-432 131.5,-468"/>
<text text-anchor="middle" x="68.5" y="-446.3" font-family="Times,serif" font-size="14.00">RD_EVICT_DONE</text>
</g>
<!-- RD_LOAD_WORD0 -->
<g id="node13" class="node">
<title>RD_LOAD_WORD0</title>
<polygon fill="none" stroke="black" points="135,-396 2,-396 2,-360 135,-360 135,-396"/>
<text text-anchor="middle" x="68.5" y="-374.3" font-family="Times,serif" font-size="14.00">RD_LOAD_WORD0</text>
</g>
<!-- RD_EVICT_DONE&#45;&gt;RD_LOAD_WORD0 -->
<g id="edge13" class="edge">
<title>RD_EVICT_DONE&#45;&gt;RD_LOAD_WORD0</title>
<path fill="none" stroke="black" d="M68.5,-431.7C68.5,-423.98 68.5,-414.71 68.5,-406.11"/>
<polygon fill="black" stroke="black" points="72,-406.1 68.5,-396.1 65,-406.1 72,-406.1"/>
</g>
<!-- RD_LOAD_WORD1 -->
<g id="node14" class="node">
<title>RD_LOAD_WORD1</title>
<polygon fill="none" stroke="black" points="135,-324 2,-324 2,-288 135,-288 135,-324"/>
<text text-anchor="middle" x="68.5" y="-302.3" font-family="Times,serif" font-size="14.00">RD_LOAD_WORD1</text>
</g>
<!-- RD_LOAD_WORD0&#45;&gt;RD_LOAD_WORD1 -->
<g id="edge14" class="edge">
<title>RD_LOAD_WORD0&#45;&gt;RD_LOAD_WORD1</title>
<path fill="none" stroke="black" d="M68.5,-359.7C68.5,-351.98 68.5,-342.71 68.5,-334.11"/>
<polygon fill="black" stroke="black" points="72,-334.1 68.5,-324.1 65,-334.1 72,-334.1"/>
</g>
<!-- RD_LOAD_WORD2 -->
<g id="node15" class="node">
<title>RD_LOAD_WORD2</title>
<polygon fill="none" stroke="black" points="135,-252 2,-252 2,-216 135,-216 135,-252"/>
<text text-anchor="middle" x="68.5" y="-230.3" font-family="Times,serif" font-size="14.00">RD_LOAD_WORD2</text>
</g>
<!-- RD_LOAD_WORD1&#45;&gt;RD_LOAD_WORD2 -->
<g id="edge15" class="edge">
<title>RD_LOAD_WORD1&#45;&gt;RD_LOAD_WORD2</title>
<path fill="none" stroke="black" d="M68.5,-287.7C68.5,-279.98 68.5,-270.71 68.5,-262.11"/>
<polygon fill="black" stroke="black" points="72,-262.1 68.5,-252.1 65,-262.1 72,-262.1"/>
</g>
<!-- RD_LOAD_WORD3 -->
<g id="node16" class="node">
<title>RD_LOAD_WORD3</title>
<polygon fill="none" stroke="black" points="135,-180 2,-180 2,-144 135,-144 135,-180"/>
<text text-anchor="middle" x="68.5" y="-158.3" font-family="Times,serif" font-size="14.00">RD_LOAD_WORD3</text>
</g>
<!-- RD_LOAD_WORD2&#45;&gt;RD_LOAD_WORD3 -->
<g id="edge16" class="edge">
<title>RD_LOAD_WORD2&#45;&gt;RD_LOAD_WORD3</title>
<path fill="none" stroke="black" d="M68.5,-215.7C68.5,-207.98 68.5,-198.71 68.5,-190.11"/>
<polygon fill="black" stroke="black" points="72,-190.1 68.5,-180.1 65,-190.1 72,-190.1"/>
</g>
<!-- RD_LOAD_WAIT0 -->
<g id="node17" class="node">
<title>RD_LOAD_WAIT0</title>
<polygon fill="none" stroke="black" points="130.5,-108 6.5,-108 6.5,-72 130.5,-72 130.5,-108"/>
<text text-anchor="middle" x="68.5" y="-86.3" font-family="Times,serif" font-size="14.00">RD_LOAD_WAIT0</text>
</g>
<!-- RD_LOAD_WORD3&#45;&gt;RD_LOAD_WAIT0 -->
<g id="edge17" class="edge">
<title>RD_LOAD_WORD3&#45;&gt;RD_LOAD_WAIT0</title>
<path fill="none" stroke="black" d="M68.5,-143.7C68.5,-135.98 68.5,-126.71 68.5,-118.11"/>
<polygon fill="black" stroke="black" points="72,-118.1 68.5,-108.1 65,-118.1 72,-118.1"/>
</g>
<!-- RD_LOAD_DONE -->
<g id="node18" class="node">
<title>RD_LOAD_DONE</title>
<polygon fill="none" stroke="black" points="129.5,-36 7.5,-36 7.5,0 129.5,0 129.5,-36"/>
<text text-anchor="middle" x="68.5" y="-14.3" font-family="Times,serif" font-size="14.00">RD_LOAD_DONE</text>
</g>
<!-- RD_LOAD_WAIT0&#45;&gt;RD_LOAD_DONE -->
<g id="edge18" class="edge">
<title>RD_LOAD_WAIT0&#45;&gt;RD_LOAD_DONE</title>
<path fill="none" stroke="black" d="M68.5,-71.7C68.5,-63.98 68.5,-54.71 68.5,-46.11"/>
<polygon fill="black" stroke="black" points="72,-46.1 68.5,-36.1 65,-46.1 72,-46.1"/>
</g>
<!-- WR_MISS -->
<g id="node20" class="node">
<title>WR_MISS</title>
<polygon fill="none" stroke="black" points="201,-1116 130,-1116 130,-1080 201,-1080 201,-1116"/>
<text text-anchor="middle" x="165.5" y="-1094.3" font-family="Times,serif" font-size="14.00">WR_MISS</text>
</g>
<!-- START_WR&#45;&gt;WR_MISS -->
<g id="edge20" class="edge">
<title>START_WR&#45;&gt;WR_MISS</title>
<path fill="none" stroke="black" d="M165.5,-1151.7C165.5,-1143.98 165.5,-1134.71 165.5,-1126.11"/>
<polygon fill="black" stroke="black" points="169,-1126.1 165.5,-1116.1 162,-1126.1 169,-1126.1"/>
</g>
<!-- RD_EVICT_WAIT3&#45;&gt;RD_EVICT_DONE -->
<g id="edge12" class="edge">
<title>RD_EVICT_WAIT3&#45;&gt;RD_EVICT_DONE</title>
<path fill="none" stroke="black" d="M68.5,-503.7C68.5,-495.98 68.5,-486.71 68.5,-478.11"/>
<polygon fill="black" stroke="black" points="72,-478.1 68.5,-468.1 65,-478.1 72,-478.1"/>
</g>
</g>
</svg>
